{
    "asset" : {
        "generator" : "Khronos glTF Blender I/O v1.5.17",
        "version" : "2.0"
    },
    "scene" : 0,
    "scenes" : [
        {
            "name" : "Scene",
            "nodes" : [
                0
            ]
        }
    ],
    "nodes" : [
        {
            "mesh" : 0,
            "name" : "Cube.005",
            "scale" : [
                50,
                20,
                50
            ],
            "translation" : [
                0,
                0,
                -100
            ]
        }
    ],
    "materials" : [
        {
            "doubleSided" : true,
            "name" : "Material.001",
            "pbrMetallicRoughness" : {
                "metallicFactor" : 0,
                "roughnessFactor" : 0.5
            }
        }
    ],
    "meshes" : [
        {
            "name" : "Cube.006",
            "primitives" : [
                {
                    "attributes" : {
                        "POSITION" : 0,
                        "NORMAL" : 1,
                        "TEXCOORD_0" : 2,
                        "COLOR_0" : 3
                    },
                    "indices" : 4,
                    "material" : 0
                }
            ]
        }
    ],
    "accessors" : [
        {
            "bufferView" : 0,
            "componentType" : 5126,
            "count" : 32011,
            "max" : [
                1.038084626197815,
                1.5867079496383667,
                1.0006167888641357
            ],
            "min" : [
                -1.0342414379119873,
                -1,
                -1.0431170463562012
            ],
            "type" : "VEC3"
        },
        {
            "bufferView" : 1,
            "componentType" : 5126,
            "count" : 32011,
            "type" : "VEC3"
        },
        {
            "bufferView" : 2,
            "componentType" : 5126,
            "count" : 32011,
            "type" : "VEC2"
        },
        {
            "bufferView" : 3,
            "componentType" : 5123,
            "count" : 32011,
            "normalized" : true,
            "type" : "VEC4"
        },
        {
            "bufferView" : 4,
            "componentType" : 5123,
            "count" : 36876,
            "type" : "SCALAR"
        }
    ],
    "bufferViews" : [
        {
            "buffer" : 0,
            "byteLength" : 384132,
            "byteOffset" : 0
        },
        {
            "buffer" : 0,
            "byteLength" : 384132,
            "byteOffset" : 384132
        },
        {
            "buffer" : 0,
            "byteLength" : 256088,
            "byteOffset" : 768264
        },
        {
            "buffer" : 0,
            "byteLength" : 256088,
            "byteOffset" : 1024352
        },
        {
            "buffer" : 0,
            "byteLength" : 73752,
            "byteOffset" : 1280440
        }
    ],
    "buffers" : [
        {
            "byteLength" : 1354192,
            "uri" : "data:application/octet-stream;base64,"
        }
    ]
}
