{
    "asset" : {
        "generator" : "Khronos glTF Blender I/O v1.5.17",
        "version" : "2.0"
    },
    "scene" : 0,
    "scenes" : [
        {
            "name" : "Scene",
            "nodes" : [
                0
            ]
        }
    ],
    "nodes" : [
        {
            "mesh" : 0,
            "name" : "Cube.004",
            "scale" : [
                50,
                20,
                50
            ],
            "translation" : [
                100,
                0,
                -100
            ]
        }
    ],
    "materials" : [
        {
            "doubleSided" : true,
            "name" : "Material.001",
            "pbrMetallicRoughness" : {
                "metallicFactor" : 0,
                "roughnessFactor" : 0.5
            }
        }
    ],
    "meshes" : [
        {
            "name" : "Cube.005",
            "primitives" : [
                {
                    "attributes" : {
                        "POSITION" : 0,
                        "NORMAL" : 1,
                        "TEXCOORD_0" : 2,
                        "COLOR_0" : 3
                    },
                    "indices" : 4,
                    "material" : 0
                }
            ]
        }
    ],
    "accessors" : [
        {
            "bufferView" : 0,
            "componentType" : 5126,
            "count" : 36235,
            "max" : [
                1.0371005535125732,
                1.474822998046875,
                1
            ],
            "min" : [
                -1.0543460845947266,
                -1,
                -1.0586754083633423
            ],
            "type" : "VEC3"
        },
        {
            "bufferView" : 1,
            "componentType" : 5126,
            "count" : 36235,
            "type" : "VEC3"
        },
        {
            "bufferView" : 2,
            "componentType" : 5126,
            "count" : 36235,
            "type" : "VEC2"
        },
        {
            "bufferView" : 3,
            "componentType" : 5123,
            "count" : 36235,
            "normalized" : true,
            "type" : "VEC4"
        },
        {
            "bufferView" : 4,
            "componentType" : 5123,
            "count" : 42882,
            "type" : "SCALAR"
        }
    ],
    "bufferViews" : [
        {
            "buffer" : 0,
            "byteLength" : 434820,
            "byteOffset" : 0
        },
        {
            "buffer" : 0,
            "byteLength" : 434820,
            "byteOffset" : 434820
        },
        {
            "buffer" : 0,
            "byteLength" : 289880,
            "byteOffset" : 869640
        },
        {
            "buffer" : 0,
            "byteLength" : 289880,
            "byteOffset" : 1159520
        },
        {
            "buffer" : 0,
            "byteLength" : 85764,
            "byteOffset" : 1449400
        }
    ],
    "buffers" : [
        {
            "byteLength" : 1535164,
            "uri" : "data:application/octet-stream;base64,"
        }
    ]
}
