{
    "asset" : {
        "generator" : "Khronos glTF Blender I/O v1.5.17",
        "version" : "2.0"
    },
    "scene" : 0,
    "scenes" : [
        {
            "name" : "Scene",
            "nodes" : [
                0
            ]
        }
    ],
    "nodes" : [
        {
            "mesh" : 0,
            "name" : "Cube.003",
            "scale" : [
                50,
                20,
                50
            ]
        }
    ],
    "materials" : [
        {
            "doubleSided" : true,
            "name" : "Material.001",
            "pbrMetallicRoughness" : {
                "metallicFactor" : 0,
                "roughnessFactor" : 0.5
            }
        }
    ],
    "meshes" : [
        {
            "name" : "Cube.004",
            "primitives" : [
                {
                    "attributes" : {
                        "POSITION" : 0,
                        "NORMAL" : 1,
                        "TEXCOORD_0" : 2,
                        "COLOR_0" : 3
                    },
                    "indices" : 4,
                    "material" : 0
                }
            ]
        }
    ],
    "accessors" : [
        {
            "bufferView" : 0,
            "componentType" : 5126,
            "count" : 70294,
            "max" : [
                1.0237277746200562,
                2.256605386734009,
                1.0738208293914795
            ],
            "min" : [
                -1.0237829685211182,
                -1,
                -1
            ],
            "type" : "VEC3"
        },
        {
            "bufferView" : 1,
            "componentType" : 5126,
            "count" : 70294,
            "type" : "VEC3"
        },
        {
            "bufferView" : 2,
            "componentType" : 5126,
            "count" : 70294,
            "type" : "VEC2"
        },
        {
            "bufferView" : 3,
            "componentType" : 5123,
            "count" : 70294,
            "normalized" : true,
            "type" : "VEC4"
        },
        {
            "bufferView" : 4,
            "componentType" : 5125,
            "count" : 76344,
            "type" : "SCALAR"
        }
    ],
    "bufferViews" : [
        {
            "buffer" : 0,
            "byteLength" : 843528,
            "byteOffset" : 0
        },
        {
            "buffer" : 0,
            "byteLength" : 843528,
            "byteOffset" : 843528
        },
        {
            "buffer" : 0,
            "byteLength" : 562352,
            "byteOffset" : 1687056
        },
        {
            "buffer" : 0,
            "byteLength" : 562352,
            "byteOffset" : 2249408
        },
        {
            "buffer" : 0,
            "byteLength" : 305376,
            "byteOffset" : 2811760
        }
    ],
    "buffers" : [
        {
            "byteLength" : 3117136,
            "uri" : "data:application/octet-stream;base64,"
        }
    ]
}
