{
    "asset" : {
        "generator" : "Khronos glTF Blender I/O v1.5.17",
        "version" : "2.0"
    },
    "scene" : 0,
    "scenes" : [
        {
            "name" : "Scene",
            "nodes" : [
                0
            ]
        }
    ],
    "nodes" : [
        {
            "mesh" : 0,
            "name" : "bridge.011",
            "translation" : [
                112.94444274902344,
                20.118486404418945,
                -71.93561553955078
            ]
        }
    ],
    "meshes" : [
        {
            "name" : "Cylinder.016",
            "primitives" : [
                {
                    "attributes" : {
                        "POSITION" : 0,
                        "NORMAL" : 1,
                        "TEXCOORD_0" : 2
                    },
                    "indices" : 3
                }
            ]
        }
    ],
    "accessors" : [
        {
            "bufferView" : 0,
            "componentType" : 5126,
            "count" : 17424,
            "max" : [
                0.7131423950195312,
                0.7202491760253906,
                11.194637298583984
            ],
            "min" : [
                -0.7005996704101562,
                -2.4930057525634766,
                -11.218086242675781
            ],
            "type" : "VEC3"
        },
        {
            "bufferView" : 1,
            "componentType" : 5126,
            "count" : 17424,
            "type" : "VEC3"
        },
        {
            "bufferView" : 2,
            "componentType" : 5126,
            "count" : 17424,
            "type" : "VEC2"
        },
        {
            "bufferView" : 3,
            "componentType" : 5123,
            "count" : 26136,
            "type" : "SCALAR"
        }
    ],
    "bufferViews" : [
        {
            "buffer" : 0,
            "byteLength" : 209088,
            "byteOffset" : 0
        },
        {
            "buffer" : 0,
            "byteLength" : 209088,
            "byteOffset" : 209088
        },
        {
            "buffer" : 0,
            "byteLength" : 139392,
            "byteOffset" : 418176
        },
        {
            "buffer" : 0,
            "byteLength" : 52272,
            "byteOffset" : 557568
        }
    ],
    "buffers" : [
        {
            "byteLength" : 609840,
            "uri" : "data:application/octet-stream;base64,"
        }
    ]
}
