{
    "asset" : {
        "generator" : "Khronos glTF Blender I/O v1.5.17",
        "version" : "2.0"
    },
    "scene" : 0,
    "scenes" : [
        {
            "name" : "Scene",
            "nodes" : [
                0
            ]
        }
    ],
    "nodes" : [
        {
            "mesh" : 0,
            "name" : "bridge"
        }
    ],
    "meshes" : [
        {
            "name" : "Cylinder.023",
            "primitives" : [
                {
                    "attributes" : {
                        "POSITION" : 0,
                        "NORMAL" : 1,
                        "TEXCOORD_0" : 2
                    },
                    "indices" : 3
                }
            ]
        }
    ],
    "accessors" : [
        {
            "bufferView" : 0,
            "componentType" : 5126,
            "count" : 3184,
            "max" : [
                0.7002878189086914,
                0.5188565850257874,
                1.5624679327011108
            ],
            "min" : [
                -0.7134570479393005,
                -0.656440794467926,
                -1.58565354347229
            ],
            "type" : "VEC3"
        },
        {
            "bufferView" : 1,
            "componentType" : 5126,
            "count" : 3184,
            "type" : "VEC3"
        },
        {
            "bufferView" : 2,
            "componentType" : 5126,
            "count" : 3184,
            "type" : "VEC2"
        },
        {
            "bufferView" : 3,
            "componentType" : 5123,
            "count" : 4776,
            "type" : "SCALAR"
        }
    ],
    "bufferViews" : [
        {
            "buffer" : 0,
            "byteLength" : 38208,
            "byteOffset" : 0
        },
        {
            "buffer" : 0,
            "byteLength" : 38208,
            "byteOffset" : 38208
        },
        {
            "buffer" : 0,
            "byteLength" : 25472,
            "byteOffset" : 76416
        },
        {
            "buffer" : 0,
            "byteLength" : 9552,
            "byteOffset" : 101888
        }
    ],
    "buffers" : [
        {
            "byteLength" : 111440,
            "uri" : "data:application/octet-stream;base64,"
        }
    ]
}
