{
    "asset" : {
        "generator" : "Khronos glTF Blender I/O v1.5.17",
        "version" : "2.0"
    },
    "scene" : 0,
    "scenes" : [
        {
            "name" : "Scene",
            "nodes" : [
                0
            ]
        }
    ],
    "nodes" : [
        {
            "mesh" : 0,
            "name" : "Stone2"
        }
    ],
    "meshes" : [
        {
            "name" : "Cylinder.000",
            "primitives" : [
                {
                    "attributes" : {
                        "POSITION" : 0,
                        "NORMAL" : 1,
                        "TEXCOORD_0" : 2
                    },
                    "indices" : 3
                }
            ]
        }
    ],
    "accessors" : [
        {
            "bufferView" : 0,
            "componentType" : 5126,
            "count" : 90,
            "max" : [
                0.6344345808029175,
                0.4123336970806122,
                0.24600015580654144
            ],
            "min" : [
                -0.1336650252342224,
                -0.002797424793243408,
                -0.3599063754081726
            ],
            "type" : "VEC3"
        },
        {
            "bufferView" : 1,
            "componentType" : 5126,
            "count" : 90,
            "type" : "VEC3"
        },
        {
            "bufferView" : 2,
            "componentType" : 5126,
            "count" : 90,
            "type" : "VEC2"
        },
        {
            "bufferView" : 3,
            "componentType" : 5123,
            "count" : 108,
            "type" : "SCALAR"
        }
    ],
    "bufferViews" : [
        {
            "buffer" : 0,
            "byteLength" : 1080,
            "byteOffset" : 0
        },
        {
            "buffer" : 0,
            "byteLength" : 1080,
            "byteOffset" : 1080
        },
        {
            "buffer" : 0,
            "byteLength" : 720,
            "byteOffset" : 2160
        },
        {
            "buffer" : 0,
            "byteLength" : 216,
            "byteOffset" : 2880
        }
    ],
    "buffers" : [
        {
            "byteLength" : 3096,
            "uri" : "data:application/octet-stream;base64,"
        }
    ]
}
