{
    "asset" : {
        "generator" : "Khronos glTF Blender I/O v1.5.17",
        "version" : "2.0"
    },
    "scene" : 0,
    "scenes" : [
        {
            "name" : "Scene",
            "nodes" : [
                0
            ]
        }
    ],
    "nodes" : [
        {
            "mesh" : 0,
            "name" : "tent"
        }
    ],
    "meshes" : [
        {
            "name" : "Cube.015",
            "primitives" : [
                {
                    "attributes" : {
                        "POSITION" : 0,
                        "NORMAL" : 1,
                        "TEXCOORD_0" : 2
                    },
                    "indices" : 3
                }
            ]
        }
    ],
    "accessors" : [
        {
            "bufferView" : 0,
            "componentType" : 5126,
            "count" : 1000,
            "max" : [
                0.9779694676399231,
                1.1609104871749878,
                1.040565013885498
            ],
            "min" : [
                -0.9191573262214661,
                0.032830700278282166,
                -0.9844741225242615
            ],
            "type" : "VEC3"
        },
        {
            "bufferView" : 1,
            "componentType" : 5126,
            "count" : 1000,
            "type" : "VEC3"
        },
        {
            "bufferView" : 2,
            "componentType" : 5126,
            "count" : 1000,
            "type" : "VEC2"
        },
        {
            "bufferView" : 3,
            "componentType" : 5123,
            "count" : 1476,
            "type" : "SCALAR"
        }
    ],
    "bufferViews" : [
        {
            "buffer" : 0,
            "byteLength" : 12000,
            "byteOffset" : 0
        },
        {
            "buffer" : 0,
            "byteLength" : 12000,
            "byteOffset" : 12000
        },
        {
            "buffer" : 0,
            "byteLength" : 8000,
            "byteOffset" : 24000
        },
        {
            "buffer" : 0,
            "byteLength" : 2952,
            "byteOffset" : 32000
        }
    ],
    "buffers" : [
        {
            "byteLength" : 34952,
            "uri" : "data:application/octet-stream;base64,"
        }
    ]
}
