{
    "asset" : {
        "generator" : "Khronos glTF Blender I/O v1.5.17",
        "version" : "2.0"
    },
    "scene" : 0,
    "scenes" : [
        {
            "name" : "Scene",
            "nodes" : [
                0
            ]
        }
    ],
    "nodes" : [
        {
            "mesh" : 0,
            "name" : "big_tree"
        }
    ],
    "meshes" : [
        {
            "name" : "Icosphere.001",
            "primitives" : [
                {
                    "attributes" : {
                        "POSITION" : 0,
                        "NORMAL" : 1,
                        "TEXCOORD_0" : 2,
                        "COLOR_0" : 3
                    },
                    "indices" : 4
                }
            ]
        }
    ],
    "accessors" : [
        {
            "bufferView" : 0,
            "componentType" : 5126,
            "count" : 2806,
            "max" : [
                0.38146382570266724,
                3.7445881366729736,
                2.429060220718384
            ],
            "min" : [
                -1.9513310194015503,
                -0.05081836134195328,
                -2.61330246925354
            ],
            "type" : "VEC3"
        },
        {
            "bufferView" : 1,
            "componentType" : 5126,
            "count" : 2806,
            "type" : "VEC3"
        },
        {
            "bufferView" : 2,
            "componentType" : 5126,
            "count" : 2806,
            "type" : "VEC2"
        },
        {
            "bufferView" : 3,
            "componentType" : 5123,
            "count" : 2806,
            "normalized" : true,
            "type" : "VEC4"
        },
        {
            "bufferView" : 4,
            "componentType" : 5123,
            "count" : 3084,
            "type" : "SCALAR"
        }
    ],
    "bufferViews" : [
        {
            "buffer" : 0,
            "byteLength" : 33672,
            "byteOffset" : 0
        },
        {
            "buffer" : 0,
            "byteLength" : 33672,
            "byteOffset" : 33672
        },
        {
            "buffer" : 0,
            "byteLength" : 22448,
            "byteOffset" : 67344
        },
        {
            "buffer" : 0,
            "byteLength" : 22448,
            "byteOffset" : 89792
        },
        {
            "buffer" : 0,
            "byteLength" : 6168,
            "byteOffset" : 112240
        }
    ],
    "buffers" : [
        {
            "byteLength" : 118408,
            "uri" : "data:application/octet-stream;base64,"
        }
    ]
}
