{
    "asset" : {
        "generator" : "Khronos glTF Blender I/O v1.5.17",
        "version" : "2.0"
    },
    "scene" : 0,
    "scenes" : [
        {
            "name" : "Scene",
            "nodes" : [
                0
            ]
        }
    ],
    "nodes" : [
        {
            "mesh" : 0,
            "name" : "Tree3"
        }
    ],
    "meshes" : [
        {
            "name" : "Icosphere",
            "primitives" : [
                {
                    "attributes" : {
                        "POSITION" : 0,
                        "NORMAL" : 1,
                        "TEXCOORD_0" : 2
                    },
                    "indices" : 3
                }
            ]
        }
    ],
    "accessors" : [
        {
            "bufferView" : 0,
            "componentType" : 5126,
            "count" : 295,
            "max" : [
                0.5762901306152344,
                2.332930326461792,
                0.4944905936717987
            ],
            "min" : [
                -0.7860984802246094,
                -0.13047894835472107,
                -0.6782802939414978
            ],
            "type" : "VEC3"
        },
        {
            "bufferView" : 1,
            "componentType" : 5126,
            "count" : 295,
            "type" : "VEC3"
        },
        {
            "bufferView" : 2,
            "componentType" : 5126,
            "count" : 295,
            "type" : "VEC2"
        },
        {
            "bufferView" : 3,
            "componentType" : 5123,
            "count" : 315,
            "type" : "SCALAR"
        }
    ],
    "bufferViews" : [
        {
            "buffer" : 0,
            "byteLength" : 3540,
            "byteOffset" : 0
        },
        {
            "buffer" : 0,
            "byteLength" : 3540,
            "byteOffset" : 3540
        },
        {
            "buffer" : 0,
            "byteLength" : 2360,
            "byteOffset" : 7080
        },
        {
            "buffer" : 0,
            "byteLength" : 630,
            "byteOffset" : 9440
        }
    ],
    "buffers" : [
        {
            "byteLength" : 10072,
            "uri" : "data:application/octet-stream;base64,"
        }
    ]
}
