{
    "asset" : {
        "generator" : "Khronos glTF Blender I/O v1.5.17",
        "version" : "2.0"
    },
    "scene" : 0,
    "scenes" : [
        {
            "name" : "Scene",
            "nodes" : [
                0
            ]
        }
    ],
    "nodes" : [
        {
            "mesh" : 0,
            "name" : "Tree1"
        }
    ],
    "meshes" : [
        {
            "name" : "Cylinder.002",
            "primitives" : [
                {
                    "attributes" : {
                        "POSITION" : 0,
                        "NORMAL" : 1,
                        "TEXCOORD_0" : 2
                    },
                    "indices" : 3
                }
            ]
        }
    ],
    "accessors" : [
        {
            "bufferView" : 0,
            "componentType" : 5126,
            "count" : 523,
            "max" : [
                1.3739262819290161,
                3.0419044494628906,
                1.5157384872436523
            ],
            "min" : [
                -0.8867162466049194,
                -0.01620940864086151,
                -1.1623960733413696
            ],
            "type" : "VEC3"
        },
        {
            "bufferView" : 1,
            "componentType" : 5126,
            "count" : 523,
            "type" : "VEC3"
        },
        {
            "bufferView" : 2,
            "componentType" : 5126,
            "count" : 523,
            "type" : "VEC2"
        },
        {
            "bufferView" : 3,
            "componentType" : 5123,
            "count" : 615,
            "type" : "SCALAR"
        }
    ],
    "bufferViews" : [
        {
            "buffer" : 0,
            "byteLength" : 6276,
            "byteOffset" : 0
        },
        {
            "buffer" : 0,
            "byteLength" : 6276,
            "byteOffset" : 6276
        },
        {
            "buffer" : 0,
            "byteLength" : 4184,
            "byteOffset" : 12552
        },
        {
            "buffer" : 0,
            "byteLength" : 1230,
            "byteOffset" : 16736
        }
    ],
    "buffers" : [
        {
            "byteLength" : 17968,
            "uri" : "data:application/octet-stream;base64,"
        }
    ]
}
