{
    "asset" : {
        "generator" : "Khronos glTF Blender I/O v1.5.17",
        "version" : "2.0"
    },
    "scene" : 0,
    "scenes" : [
        {
            "name" : "Scene",
            "nodes" : [
                0
            ]
        }
    ],
    "nodes" : [
        {
            "mesh" : 0,
            "name" : "Tree2"
        }
    ],
    "meshes" : [
        {
            "name" : "Cylinder.004",
            "primitives" : [
                {
                    "attributes" : {
                        "POSITION" : 0,
                        "NORMAL" : 1,
                        "TEXCOORD_0" : 2
                    },
                    "indices" : 3
                }
            ]
        }
    ],
    "accessors" : [
        {
            "bufferView" : 0,
            "componentType" : 5126,
            "count" : 437,
            "max" : [
                0.6440501809120178,
                3.3441708087921143,
                0.6392104625701904
            ],
            "min" : [
                -0.6862612366676331,
                0,
                -0.6899304389953613
            ],
            "type" : "VEC3"
        },
        {
            "bufferView" : 1,
            "componentType" : 5126,
            "count" : 437,
            "type" : "VEC3"
        },
        {
            "bufferView" : 2,
            "componentType" : 5126,
            "count" : 437,
            "type" : "VEC2"
        },
        {
            "bufferView" : 3,
            "componentType" : 5123,
            "count" : 630,
            "type" : "SCALAR"
        }
    ],
    "bufferViews" : [
        {
            "buffer" : 0,
            "byteLength" : 5244,
            "byteOffset" : 0
        },
        {
            "buffer" : 0,
            "byteLength" : 5244,
            "byteOffset" : 5244
        },
        {
            "buffer" : 0,
            "byteLength" : 3496,
            "byteOffset" : 10488
        },
        {
            "buffer" : 0,
            "byteLength" : 1260,
            "byteOffset" : 13984
        }
    ],
    "buffers" : [
        {
            "byteLength" : 15244,
            "uri" : "data:application/octet-stream;base64,"
        }
    ]
}
