{
    "asset" : {
        "generator" : "Khronos glTF Blender I/O v1.5.17",
        "version" : "2.0"
    },
    "scene" : 0,
    "scenes" : [
        {
            "name" : "Scene",
            "nodes" : [
                0
            ]
        }
    ],
    "nodes" : [
        {
            "mesh" : 0,
            "name" : "house"
        }
    ],
    "meshes" : [
        {
            "name" : "Cube.324",
            "primitives" : [
                {
                    "attributes" : {
                        "POSITION" : 0,
                        "NORMAL" : 1,
                        "TEXCOORD_0" : 2
                    },
                    "indices" : 3
                }
            ]
        }
    ],
    "accessors" : [
        {
            "bufferView" : 0,
            "componentType" : 5126,
            "count" : 13488,
            "max" : [
                2.1465067863464355,
                4.043402671813965,
                0.5752781629562378
            ],
            "min" : [
                -1.576058030128479,
                -0.05858980119228363,
                -4.003147125244141
            ],
            "type" : "VEC3"
        },
        {
            "bufferView" : 1,
            "componentType" : 5126,
            "count" : 13488,
            "type" : "VEC3"
        },
        {
            "bufferView" : 2,
            "componentType" : 5126,
            "count" : 13488,
            "type" : "VEC2"
        },
        {
            "bufferView" : 3,
            "componentType" : 5123,
            "count" : 19308,
            "type" : "SCALAR"
        }
    ],
    "bufferViews" : [
        {
            "buffer" : 0,
            "byteLength" : 161856,
            "byteOffset" : 0
        },
        {
            "buffer" : 0,
            "byteLength" : 161856,
            "byteOffset" : 161856
        },
        {
            "buffer" : 0,
            "byteLength" : 107904,
            "byteOffset" : 323712
        },
        {
            "buffer" : 0,
            "byteLength" : 38616,
            "byteOffset" : 431616
        }
    ],
    "buffers" : [
        {
            "byteLength" : 470232,
            "uri" : "data:application/octet-stream;base64,"
        }
    ]
}
